<svg id="Layer_1" data-name="Layer 1" xmlns="http://www.w3.org/2000/svg" viewBox="0 0 847.67 847.67"><defs><style>.cls-1{fill:#32363a;}.cls-2{fill:none;stroke:#32363a;stroke-miterlimit:10;stroke-width:15px;}</style></defs><path class="cls-1" d="M767.56,688.87s-6.84-18.3-31.23-39.55l-4.06-9.79,35.85-2.41s8.87,1.11,8.13-9.42S769,614.39,769,614.39l-29.75-2.95s-6.66-.37-6.66,7.57.37,12.57.37,12.57h-4.8S697,558.4,666.66,553.78s-55.9-7.95-90.88-7.95h-3.24c-35,0-60.57,3.33-90.88,7.95s-61.54,77.8-61.54,77.8h-4.8s.37-4.62.37-12.57-6.66-7.57-6.66-7.57l-29.75,2.95s-6.47,2.78-7.21,13.31,8.14,9.42,8.14,9.42l35.85,2.41L412,649.32c-24.39,21.25-31.23,39.55-31.23,39.55-19.22,9-16.82,73-16.82,73l3.88,68.75L366.34,836l3,4.25,75.22,14c16.63.36,22.22-4.49,22.22-4.49,35,3.81,71,5.42,104,5.84v.07l3.45,0,3.45,0v-.07c32.92-.42,68.95-2,104-5.84,0,0,5.59,4.85,22.23,4.49l75.21-14,3-4.25-1.48-5.36,3.88-68.75S786.78,697.92,767.56,688.87ZM757,709.44s14.55-5.44,15.38,12.46a58.61,58.61,0,0,1-6.65,30.37s-37.42,30.77-71.52,20c0,0,14.14-34.93,13.72-44.08ZM574.16,789.56c-11.68-.12-23.48-.43-34.22-1-43.66-2.5-70.69-29.11-70.69-29.11-37-48.23-3.74-53.65-3.74-53.65,35.84-3,72-4,105.2-3.87v0l3.45,0,3.45,0v0c33.15-.1,69.36.87,105.21,3.87,0,0,33.26,5.42-3.75,53.65,0,0-27,26.61-70.68,29.11C597.64,789.13,585.85,789.44,574.16,789.56ZM470.29,570.22s47-3.52,103.87-3.73C631,566.7,678,570.22,678,570.22c15.53,10.16,37.7,72.07,37.7,72.07l-141.57,1.35-141.57-1.35S454.76,580.38,470.29,570.22ZM375.93,721.9c.83-17.9,15.39-12.46,15.39-12.46l49.06,18.71c-.41,9.15,13.72,44.08,13.72,44.08-34.09,10.81-71.52-20-71.52-20A58.61,58.61,0,0,1,375.93,721.9ZM769.06,830.79,694.64,841.6l-46.57-17.05H500.26L453.69,841.6l-74.43-10.81s-11.23,3.33,0-29.94c0,0,2.71-17.05,53.33-9.15l32.74,3.75a144,144,0,0,0,47.47,8.32V791.83l57.91.47v.06l3.45,0,3.45,0v-.06l57.91-.47v11.94A144,144,0,0,0,683,795.45l32.74-3.75c50.62-7.9,53.33,9.15,53.33,9.15C780.29,834.12,769.06,830.79,769.06,830.79Z" transform="translate(-150.33 -276.93)"/><path class="cls-1" d="M444.17,854.2l-4,6.63c-16.08,6.93-60.7,0-60.7,0-7.4-3.42-10.17-20.6-10.17-20.6Z" transform="translate(-150.33 -276.93)"/><path class="cls-1" d="M779,840.23c-2.22,21.81-12.57,22.92-12.57,22.92s-29.94.37-46.57.37-16.08-9.24-16.08-9.24Z" transform="translate(-150.33 -276.93)"/><path class="cls-1" d="M734.78,935.24a282,282,0,0,1-160.62,49.91c-156.44,0-283.27-126.82-283.27-283.27S417.72,418.62,574.16,418.62,857.43,545.44,857.43,701.88a282,282,0,0,1-36.7,139.53h48.88a325.49,325.49,0,0,0,31.21-139.53c0-180.41-146.25-326.66-326.66-326.66S247.5,521.47,247.5,701.88s146.25,326.67,326.66,326.67a325.13,325.13,0,0,0,160.62-42.16Z" transform="translate(-150.33 -276.93)"/><path class="cls-2" d="M734.78,935.24a282,282,0,0,1-160.62,49.91c-156.44,0-283.27-126.82-283.27-283.27S417.72,418.62,574.16,418.62,857.43,545.44,857.43,701.88a282,282,0,0,1-36.7,139.53h48.88a325.49,325.49,0,0,0,31.21-139.53c0-180.41-146.25-326.66-326.66-326.66S247.5,521.47,247.5,701.88s146.25,326.67,326.66,326.67a325.13,325.13,0,0,0,160.62-42.16Z" transform="translate(-150.33 -276.93)"/><path class="cls-1" d="M206.63,700.76c0-203,164.55-367.52,367.53-367.52S941.69,497.78,941.69,700.76a366.32,366.32,0,0,1-31,147.93h60.76A422.82,422.82,0,0,0,998,700.76c0-234.07-189.75-423.83-423.83-423.83S150.33,466.69,150.33,700.76,340.08,1124.6,574.16,1124.6a422.44,422.44,0,0,0,168.1-34.66v-62.27a365.93,365.93,0,0,1-168.1,40.62C371.18,1068.29,206.63,903.74,206.63,700.76Z" transform="translate(-150.33 -276.93)"/><polygon class="cls-1" points="634.15 619.28 634.15 802.88 812.3 624.73 634.15 619.28"/><rect class="cls-1" x="850.54" y="907.05" width="60.72" height="175.25" transform="translate(-595.66 637.29) rotate(-45)"/></svg>