<svg id="Layer_1" data-name="Layer 1" xmlns="http://www.w3.org/2000/svg" viewBox="0 0 500 500"><defs><style>.cls-1{fill:#fdd700;}</style></defs><path class="cls-1" d="M4.78,249.64q0-106.51,0-213c0-24.69,6.94-31.92,31.6-31.95q213-.23,426.05,0c22.92,0,32.55,9.21,32.59,32.4q.38,213,0,426.05c0,22.59-10.11,32.17-33.13,32.2q-213,.29-426,0c-24,0-31-7.77-31.06-32.65Q4.68,356.15,4.78,249.64ZM264.61,172.9c-25.14.27-56.65,10-82.05,32-11.9,10.29-24.59,15-39.56,17.24-40.62,6.05-50.44,17-52.53,57.41-.41,7.92-2.28,17.43,9.73,19.5,11,1.9,17.14-2.12,20.83-13.43,6.83-20.91,19.46-29.27,39.34-28.81,18.61.42,29.74,8.94,36,30.39,2.73,9.28,7.3,12.36,16.21,12.28q38.12-.35,76.24,0c8.91.08,13.69-3.49,17-12.06,9.13-23.79,19.39-31.16,39.76-30.61,18.86.51,29.26,8.77,36.61,31.92,3.51,11,11,10.62,19.41,10.52,10.91-.14,12.33-7.66,11.66-15.88-.87-10.54-4-21.07-3.57-31.49.68-15-4.58-23.42-19.42-26.5-7.44-1.55-15-4-19.56-11.07C348.46,179.31,313.17,174.07,264.61,172.9ZM369.94,295c-.16-14.21-12.2-26.47-25.88-26.37-13.94.1-25.83,12.49-25.5,26.56a25.88,25.88,0,0,0,26.7,25.15C358.78,319.84,370.1,308.23,369.94,295ZM158.15,320.48c13.92.21,26.54-11.8,26.78-25.49.22-12.66-13.35-26.06-26.5-26.17-12.88-.1-24.62,11.59-25,24.89C133,308.45,143.94,320.27,158.15,320.48Z"/><path class="cls-1" d="M225.22,218.59c-8.84,0-17.68.13-26.52-.07-3.39-.07-7.72.44-9.15-3.61-1.77-5,2.57-7.47,5.84-9.65a139.47,139.47,0,0,1,53.81-21.39c9.91-1.76,14.87,2.71,14.84,12.19,0,8.83,3.67,20.5-10.57,22.1-9.3,1.05-18.83.2-28.25.2Z"/><path class="cls-1" d="M301.23,218.55c-28.05.2-34.48-5.68-29.4-26.36,1.25-5.09,3.54-8.74,9-9.33,14.27-1.54,28.32-.09,41.28,6.08,8.64,4.12,6.7,12.87,6,20.36s-6.45,9.06-12.76,9.23C310.62,218.65,305.92,218.55,301.23,218.55Z"/></svg>