<svg id="Layer_1" data-name="Layer 1" xmlns="http://www.w3.org/2000/svg" viewBox="0 0 486.15 486.3"><defs><style>.cls-1{fill:#4b82be;}</style></defs><path class="cls-1" d="M248.44,493.15C113.71,492.76,6.68,384.55,6.92,249,7.15,114.85,116.36,6.54,251.07,6.85c133.4.3,242.4,110.53,242,244.73C492.69,385.63,383.41,493.55,248.44,493.15ZM161.71,220.44h-.09V232c0,54.83,32.78,88.45,75.3,115.45,11.24,7.13,22.06,3.19,32.55-3.39,9.16-5.76,5.53-12.83,3.57-20.31-8.83-33.71,12.76-61.13,49.27-60.83,10.53.08,13.71-3.58,14.92-12.44,2.73-19.9,1.17-39.85,1-59.79-.09-9.95-6.39-13.48-15.23-13.39-20.85.2-39.12-7.58-55.86-18.87-11.82-8-21.78-8.09-33.25.83-11.69,9.09-24.72,17-40.27,16.94-31.16-.09-31.79-1.55-31.91,34.55C161.7,214,161.71,217.22,161.71,220.44Zm192.61,73.9c-.06-3.45-1.37-6.39-4.58-7.74-6.19-2.62-9.46,2.42-12.83,5.85-12.63,12.82-23.64,31.08-44.18,10.13-3.07-3.13-7.34-1.31-9.82,2.32-2,2.91-2.1,6.6.61,8.73,10.3,8.09,18.58,20,33.26,20.4C322.39,334.17,354.16,299.21,354.32,294.34Z" transform="translate(-6.92 -6.85)"/></svg>