<svg id="Layer_1" data-name="Layer 1" xmlns="http://www.w3.org/2000/svg" viewBox="0 0 486.34 486.44"><defs><style>.cls-1{fill:#4b82be;}</style></defs><path class="cls-1" d="M250.82,6.78c136.57.14,242.32,106.34,242.35,243.38,0,135.63-107.81,243.23-243.57,243.06C114.23,493.06,6.49,384.62,6.83,248.89,7.18,112.85,114.23,6.63,250.82,6.78Zm.68,350.94c48.46,5.85,108.08-37.44,109.25-107.53,1-60.44-47.92-108-109.19-107.95-62.26,0-109.1,47.51-109.31,109.86C142.05,313.65,201.53,364.2,251.5,357.72Z" transform="translate(-6.83 -6.78)"/><path class="cls-1" d="M251.84,223.46c-20.49,0-41-.19-61.48.1-12.19.17-17.6-3.28-10.12-15.56,16.69-27.4,41.51-42.52,73.13-41.76,30.8.73,54.42,17,70.61,43.36,6.17,10,1.84,13.92-8.74,13.87C294.11,223.37,273,223.44,251.84,223.46Z" transform="translate(-6.83 -6.78)"/><path class="cls-1" d="M237,317.57c.66,9.77-3,13.45-13.31,11.29-26.24-5.49-58.15-42-59.46-68.71-.69-14,6.67-16,18.15-12.9C208,254.08,236,290,237,317.57Z" transform="translate(-6.83 -6.78)"/><path class="cls-1" d="M338.88,260.12C337,286,306.49,321.84,281.34,328.33c-8.59,2.23-14.69,2.33-15-9.06-.74-27.8,30-67.27,56.72-72.61C334.35,244.37,340.2,247.87,338.88,260.12Z" transform="translate(-6.83 -6.78)"/><path class="cls-1" d="M252.58,264.12c-8.17-.61-13.31-4.86-13.82-13.07s4.06-13.9,12.12-14.56c8.27-.67,13.23,4.76,13.84,12.79C265.36,257.51,260.5,262.26,252.58,264.12Z" transform="translate(-6.83 -6.78)"/></svg>