<svg id="Layer_1" data-name="Layer 1" xmlns="http://www.w3.org/2000/svg" viewBox="0 0 484.01 483.95"><defs><style>.cls-1{fill:#4b82be;}</style></defs><path class="cls-1" d="M249.33,8.16C357.1,4.52,491.65,91.77,492,249c.31,138.37-107.72,242.65-242.43,243C124.9,492.24,9.16,395.32,8,252.05,6.74,94,140,5.55,249.33,8.16ZM171,346.15l-.21.2c1.43-4.09,3.31-9.48-2.9-9.94-7.5-.55-6.88,4.83-4.47,10l-.23-.23Zm0-172.77-.17.16c.12-4,3.83-9.12-2.88-11.14-2.59-.78-5.37.52-5.67,3.43-.7,6.29,4.15,6.89,8.72,7.55Zm150.55,78.33c1.9-44.47-37.58-69.85-68.49-70.2-39.33-.44-70.63,30.92-70.76,70.42-.14,39.78,30.93,71.4,70,71.18,30.92-.18,71.7-25.55,69.22-71.4Zm11,94.76c11.8.55,18.15-9.63,12.33-20.67-5.08-9.65-13.9-16.26-21.5-23.82-4-4-8.14-3.14-11.4.88-4.17,5.15-12.26,7.83-11.61,16.08.45,6.12,25.82,27.23,32.15,27.53Zm-71.87,7c-1.13-4.48-4.3-8.13-8.12-9-5-1.17-7.81,4.19-8.77,7.78s3.13,6.75,6.74,7.52c4.76,1.07,7.87-2.12,10.12-6.25Zm-.4-201.6c-1.41-3.89-4-7.24-7.66-7.6-5.1-.51-8.22,4.06-8.46,8.14-.19,3.26,3.26,7.27,7.14,7.46,4.89.3,6.86-4.24,8.95-8ZM151.53,260.31a9.2,9.2,0,0,0,7.78-7.36c.87-4-3-7.53-6.28-8.22-5.13-1.06-8.51,3.68-8.8,7.74C144,255.68,147.7,258.9,151.53,260.31Zm206.25-9.42c-2-2.17-2.26-7.39-7.18-6.23-3.45.81-7,4.27-6.57,8,.42,3.35,3.44,7.15,7.49,7.16C356.22,259.78,356.75,255.37,357.78,250.89Zm-19.59-78.4c4.09-.08,5.58-2.88,5.66-6.25.09-3.86-3-5.76-6.19-5.58s-6.26,2-5.72,6.12c.46,3.51,2.42,5.72,6.25,5.71Z" transform="translate(-7.99 -8.05)"/><path class="cls-1" d="M190,252.26c0-34.93,26.89-62.48,61.39-62.94,33.63-.44,64.72,30,64.54,63.15-.18,33.37-31,63.24-64.8,62.83C217,314.89,190,287.07,190,252.26ZM252.07,308c30.58,0,56.12-26,55.61-56.46-.49-29.82-25.53-54.71-55.33-55-30.32-.31-55.14,25.3-54.85,56.6C197.78,283.35,222.32,308,252.07,308Z" transform="translate(-7.99 -8.05)"/><path class="cls-1" d="M253.11,219.68c17.6.56,32.94,16.5,32.34,33.6s-16.67,32.09-34.17,31.54c-18.66-.59-32.19-14.86-31.71-33.45a32,32,0,0,1,32.37-31.72Q252.53,219.65,253.11,219.68Zm25,31.66c-.58-14.09-12.07-24.34-26.8-23.91-13.67.4-26,13-25.32,25.82.68,13.33,13.17,24.22,27.24,23.77,14.77-.47,25.48-11.56,24.89-25.68Z" transform="translate(-7.99 -8.05)"/><path class="cls-1" d="M252.35,257.35c-.94-2.69-4.67-2.83-7-4.78-3.9-3.2-5.09-7.26-3.25-11.86,1.72-4.3,4.75-7.68,9.63-8.14a7.93,7.93,0,0,1,8,4.17c1.44,2.93-1.19,4.32-3.64,5.18-6.91,2.41-6.35,4.92-.38,8.15,10.13,5.47,9.32,12.53,1.94,19.63-3.6,3.47-8.52,3.85-11.95,0-4.48-5,1.09-5.78,4.06-7.42C251.33,261.37,252.94,260.43,252.35,257.35Z" transform="translate(-7.99 -8.05)"/></svg>