<svg id="Layer_1" data-name="Layer 1" xmlns="http://www.w3.org/2000/svg" viewBox="0 0 500 500"><defs><style>.cls-1{fill:#fdd700;}</style></defs><path class="cls-1" d="M492.26,249.64q0,105.23,0,210.44c0,25.06-7.07,32.26-32.46,32.28q-208.68.19-417.36,0C16.93,492.33,7.85,483,7.82,457q-.21-206.92,0-413.85c0-27.29,8.56-35.54,35.8-35.56q206.94-.09,413.86,0c28.95,0,34.75,6,34.77,35.13Q492.33,146.18,492.26,249.64ZM251.41,361.88q38.58,0,77.15,0c9.24,0,16-1.24,14.13-13.72-6.2-41.88-44.4-75.59-87.83-76.68-46.05-1.16-86.15,30.18-94.32,73-2.32,12.13.81,17.65,13.73,17.47C200,361.62,225.7,361.87,251.41,361.88ZM250.54,142c-28.09.46-49.58,22.48-49.38,50.62.19,27.94,22.55,50.37,49.91,50.07,28.86-.32,51.44-23.16,50.76-51.34C301.17,164.06,277.77,141.54,250.54,142Z"/></svg>