<svg id="Layer_1" data-name="Layer 1" xmlns="http://www.w3.org/2000/svg" viewBox="0 0 500 500"><defs><style>.cls-1{fill:#fdd700;}</style></defs><path class="cls-1" d="M248.19,490.68q-101.77,0-203.56,0c-27.51,0-35.32-7.78-35.33-35.12q-.11-205.29,0-410.6c0-28.85,6.88-35.58,36.16-35.6q204.44-.08,408.86,0c29.88,0,36.4,6.68,36.41,37.17q.06,203.57,0,407.12c0,29.23-7.86,37-37.23,37Q350.85,490.77,248.19,490.68Zm5.35-247c-31.3,0-62.61.38-93.91-.18-12.84-.23-17.7,4.67-17.19,17.38.7,17.36.07,34.78.36,52.16.21,12.29,6.27,20,19.1,20q90.43.29,180.87.11c12.05,0,18.16-6.41,18.24-18.4.11-18-.38-36,.28-53.91.47-12.75-4.56-17.57-17.31-17.33C313.84,244.06,283.69,243.68,253.54,243.68Zm-1.88-39.19q46,0,92,0c8.19,0,16.95.65,17.3-11.51.31-11-2.93-19.54-15-21.83a65,65,0,0,0-12.1-.71q-81.6-.07-163.18,0c-5.16,0-10.66,0-15.4,1.64-10.25,3.61-13.19,12.12-12.41,22.3.86,11.22,9.42,10,16.77,10C190.32,204.58,221,204.49,251.66,204.49Z"/><path class="cls-1" d="M210.75,309.15q-7.8,0-15.61,0c-25.85-.1-25.08-.25-26.12-26.22-.68-17.11,4.49-24.57,22.47-23.1,15.51,1.28,31.21.58,46.81.25,11.15-.24,15.9,4.87,15.4,15.71a75.67,75.67,0,0,0,.1,12.14c1.76,15.49-4.29,22.9-20.51,21.33C225.84,308.55,218.27,309.15,210.75,309.15Z"/></svg>