<svg id="Layer_1" data-name="Layer 1" xmlns="http://www.w3.org/2000/svg" viewBox="0 0 488.32 488.44"><defs><style>.cls-1{fill:#4b82be;}</style></defs><path class="cls-1" d="M250.24,5.79c133.1-.14,243.37,106.9,243.92,243.68.54,134.18-111,244.87-245.62,244.75C115.2,494.1,5.64,383.37,5.84,248.68,6,113,116.35,4.91,250.24,5.79Zm94,246.77c3.92-52.95-40.75-94.26-91.57-95.81-49.67-1.51-93,42.76-93,93.48,0,52,41.16,93.76,92.35,93.66,53.2-.11,96-47.32,92.24-91.33ZM123,257.18c4.59-2.42,15,3,15.3-5.13s-10-5.24-15.62-5.19-15.41-3.24-15.41,5.43C107.3,259,116.75,255.79,123,257.18Zm17.25-35.53c-2-6.73-7.71-5.83-12.72-5.64-4.16.17-8.93,1.38-8.06,6.71,1.17,7.1,7.54,5.81,12.51,5.71,4.2-.08,8.13-1.24,8.29-6.78Zm-10.08,63c3.69-.65,9.24.28,8.79-5.33-.41-5.2-5.84-4.47-9.63-4.43s-9.24-.32-8.81,5.2c.42,5.24,5.89,4.07,9.67,4.59Z" transform="translate(-5.84 -5.78)"/><path class="cls-1" d="M248.59,202.7c5.87.06,8.19,3.78,8.47,8.91.38,6.91,1.06,13.95.24,20.77-1.9,15.86,4.48,26.17,18.24,33.91,5.83,3.28,18.67,6.1,11.79,16.71-7.11,11-15.54,1.33-22-3.16-8.82-6.1-21.82-9.24-24.23-20.9-3.26-15.79-2-32.21-.42-48.33C241.08,206.24,244,203.35,248.59,202.7Z" transform="translate(-5.84 -5.78)"/></svg>